<svg width="176" height="56" viewBox="0 0 176 56" fill="none" xmlns="http://www.w3.org/2000/svg">
<g filter="url(#filter0_d_240_148)">
<path d="M31.88 12C34.04 12 35.9333 12.3733 37.56 13.12C39.2133 13.84 40.5867 14.8533 41.68 16.16C42.7733 17.44 43.6 18.9333 44.16 20.64C44.72 22.32 45 24.1067 45 26C45 28.56 44.5067 30.9067 43.52 33.04C42.5333 35.1467 41.0667 36.84 39.12 38.12C37.1733 39.3733 34.76 40 31.88 40H20.92V12H31.88ZM31.68 35.84C33.7867 35.84 35.4933 35.4 36.8 34.52C38.1067 33.6133 39.0667 32.4133 39.68 30.92C40.2933 29.4267 40.6 27.7867 40.6 26C40.6 24.24 40.2933 22.6133 39.68 21.12C39.0667 19.6267 38.1067 18.4267 36.8 17.52C35.4933 16.6133 33.7867 16.16 31.68 16.16H25.24V35.84H31.68ZM68.5406 40L65.9006 33.04H54.1806L51.5406 40H47.1406L57.9806 12H62.3806L73.1406 40H68.5406ZM57.9006 23.28L55.7806 28.88H64.3406L62.1406 23.12C61.794 22.1867 61.4473 21.1867 61.1006 20.12C60.754 19.0267 60.4073 17.9333 60.0606 16.84C59.6873 17.96 59.314 19.08 58.9406 20.2C58.594 21.32 58.2473 22.3467 57.9006 23.28ZM98.8284 20.92C98.8284 22.6 98.3218 24.16 97.3084 25.6C96.3218 27.04 95.0284 28.1067 93.4284 28.8L99.9484 40.04L94.7084 40L88.7884 29.48H82.3884V40H78.0684V12H89.9884C91.4551 12 92.8551 12.36 94.1884 13.08C95.5484 13.8 96.6551 14.8267 97.5084 16.16C98.3884 17.4933 98.8284 19.08 98.8284 20.92ZM89.2684 16.16H82.3884V25.32H90.3884C91.6684 25.32 92.6551 24.8667 93.3484 23.96C94.0684 23.0533 94.4284 22.0267 94.4284 20.88C94.4284 19.4133 93.9218 18.2667 92.9084 17.44C91.8951 16.5867 90.6818 16.16 89.2684 16.16ZM110.201 40H105.881V12H110.201V25.72L123.921 12H129.601L117.521 23.72L129.841 40H124.441L114.481 26.68L110.201 30.84V40Z" fill="#B6B6B6"/>
</g>
<path d="M129.04 43L131.33 46.73L133.66 43H134.66V50H133.58V47.13C133.58 46.71 133.587 46.3133 133.6 45.94C133.62 45.56 133.65 45.1833 133.69 44.81L131.63 47.99H130.97L128.96 44.82C129 45.1933 129.027 45.5667 129.04 45.94C129.053 46.3133 129.06 46.71 129.06 47.13V50H127.98V43H129.04ZM141.243 50L140.583 48.26H137.653L136.993 50H135.893L138.603 43H139.703L142.393 50H141.243ZM138.583 45.82L138.053 47.22H140.193L139.643 45.78C139.556 45.5467 139.469 45.2967 139.383 45.03C139.296 44.7567 139.209 44.4833 139.123 44.21C139.029 44.49 138.936 44.77 138.843 45.05C138.756 45.33 138.669 45.5867 138.583 45.82ZM144.456 50V44.04H142.496V43H147.556V44.04H145.536V50H144.456ZM150.521 50V44.04H148.561V43H153.621V44.04H151.601V50H150.521ZM154.953 43H159.363V44.04H156.033V45.89H158.813V46.93H156.033V48.96H159.363V50H154.953V43ZM166.285 45.23C166.285 45.65 166.159 46.04 165.905 46.4C165.659 46.76 165.335 47.0267 164.935 47.2L166.565 50.01L165.255 50L163.775 47.37H162.175V50H161.095V43H164.075C164.442 43 164.792 43.09 165.125 43.27C165.465 43.45 165.742 43.7067 165.955 44.04C166.175 44.3733 166.285 44.77 166.285 45.23ZM163.895 44.04H162.175V46.33H164.175C164.495 46.33 164.742 46.2167 164.915 45.99C165.095 45.7633 165.185 45.5067 165.185 45.22C165.185 44.8533 165.059 44.5667 164.805 44.36C164.552 44.1467 164.249 44.04 163.895 44.04Z" fill="#B6B6B6"/>
<defs>
<filter id="filter0_d_240_148" x="0.920044" y="12" width="128.921" height="32.04" filterUnits="userSpaceOnUse" color-interpolation-filters="sRGB">
<feFlood flood-opacity="0" result="BackgroundImageFix"/>
<feColorMatrix in="SourceAlpha" type="matrix" values="0 0 0 0 0 0 0 0 0 0 0 0 0 0 0 0 0 0 127 0" result="hardAlpha"/>
<feOffset dx="-20" dy="4"/>
<feComposite in2="hardAlpha" operator="out"/>
<feColorMatrix type="matrix" values="0 0 0 0 0.5 0 0 0 0 0.464583 0 0 0 0 0.464583 0 0 0 0.25 0"/>
<feBlend mode="normal" in2="BackgroundImageFix" result="effect1_dropShadow_240_148"/>
<feBlend mode="normal" in="SourceGraphic" in2="effect1_dropShadow_240_148" result="shape"/>
</filter>
</defs>
</svg>
